<svg width="22" height="22" viewBox="0 0 22 22" fill="none" xmlns="http://www.w3.org/2000/svg">
<g opacity="0.5">
<path fill-rule="evenodd" clip-rule="evenodd" d="M1.17157 1.1717C0 2.34327 0 4.22888 0 8.00012V13.9995C0 17.7707 0 19.6563 1.17157 20.8279C2.34315 21.9995 4.22876 21.9995 8 21.9995H13.9994C17.7706 21.9995 19.6562 21.9995 20.8278 20.8279C21.9994 19.6563 21.9994 17.7707 21.9994 13.9995V8.00012C21.9994 5.06916 21.9994 3.27715 21.4494 2.07411V16.4997C20.3929 16.4997 19.3798 16.08 18.6327 15.333L17.8059 14.5061C16.878 13.5782 16.414 13.1142 15.8641 12.9829C15.5587 12.91 15.2404 12.91 14.9351 12.9829C14.3851 13.1142 13.9212 13.5782 12.9932 14.5061L12.9932 14.5061L12.8687 14.6306C12.1279 15.3715 11.7574 15.7419 11.3521 15.748C11.2147 15.7501 11.0784 15.7238 10.9517 15.6709C10.5776 15.5147 10.3712 15.0332 9.95846 14.0701L9.89972 13.9331C8.96517 11.7525 8.4979 10.6621 7.61058 10.3905C7.47427 10.3488 7.3339 10.3218 7.19185 10.3099C6.26711 10.2325 5.42833 11.0713 3.75077 12.7489L1.64995 14.8497V0.782837C1.47764 0.895471 1.31896 1.02431 1.17157 1.1717Z" fill="#7D7D7D"/>
<path d="M1 8C1 6.08611 1.00212 4.75129 1.13753 3.74416C1.26907 2.76579 1.50966 2.2477 1.87868 1.87868C2.2477 1.50966 2.76579 1.26907 3.74416 1.13753C4.75129 1.00212 6.08611 1 8 1H13.9994C15.9133 1 17.2481 1.00212 18.2552 1.13753C19.2336 1.26907 19.7517 1.50966 20.1207 1.87868C20.4897 2.2477 20.7303 2.76579 20.8618 3.74416C20.9972 4.75129 20.9994 6.08611 20.9994 8V13.9994C20.9994 15.9133 20.9972 17.2481 20.8618 18.2552C20.7303 19.2336 20.4897 19.7517 20.1207 20.1207C19.7517 20.4897 19.2336 20.7303 18.2552 20.8618C17.2481 20.9972 15.9133 20.9994 13.9994 20.9994H8C6.08611 20.9994 4.75129 20.9972 3.74416 20.8618C2.76579 20.7303 2.2477 20.4897 1.87868 20.1207C1.50966 19.7517 1.26907 19.2336 1.13753 18.2552C1.00212 17.2481 1 15.9133 1 13.9994V8Z" stroke="#7D7D7D" stroke-width="2"/>
<circle cx="14.2995" cy="7.69981" r="2.19994" fill="#7D7D7D"/>
</g>
</svg>
