<svg width="22" height="22" viewBox="0 0 22 22" fill="none" xmlns="http://www.w3.org/2000/svg">
<path d="M11 0.880005C16.5893 0.880005 21.12 5.41073 21.12 11C21.1213 12.5712 20.7562 14.1211 20.0537 15.5265C19.3511 16.9319 18.3306 18.1541 17.073 19.096H19.096C19.3644 19.096 19.6218 19.2026 19.8116 19.3924C20.0014 19.5822 20.108 19.8396 20.108 20.108C20.108 20.3764 20.0014 20.6338 19.8116 20.8236C19.6218 21.0134 19.3644 21.12 19.096 21.12H11C5.41073 21.12 0.880005 16.5893 0.880005 11C0.880005 5.41073 5.41073 0.880005 11 0.880005ZM11 13.024C10.4632 13.024 9.94839 13.2372 9.56882 13.6168C9.18925 13.9964 8.976 14.5112 8.976 15.048C8.976 15.5848 9.18925 16.0996 9.56882 16.4792C9.94839 16.8588 10.4632 17.072 11 17.072C11.5368 17.072 12.0516 16.8588 12.4312 16.4792C12.8108 16.0996 13.024 15.5848 13.024 15.048C13.024 14.5112 12.8108 13.9964 12.4312 13.6168C12.0516 13.2372 11.5368 13.024 11 13.024ZM6.952 8.976C6.41521 8.976 5.90039 9.18925 5.52082 9.56882C5.14125 9.94839 4.928 10.4632 4.928 11C4.928 11.5368 5.14125 12.0516 5.52082 12.4312C5.90039 12.8108 6.41521 13.024 6.952 13.024C7.4888 13.024 8.00361 12.8108 8.38319 12.4312C8.76276 12.0516 8.976 11.5368 8.976 11C8.976 10.4632 8.76276 9.94839 8.38319 9.56882C8.00361 9.18925 7.4888 8.976 6.952 8.976ZM15.048 8.976C14.5112 8.976 13.9964 9.18925 13.6168 9.56882C13.2372 9.94839 13.024 10.4632 13.024 11C13.024 11.5368 13.2372 12.0516 13.6168 12.4312C13.9964 12.8108 14.5112 13.024 15.048 13.024C15.5848 13.024 16.0996 12.8108 16.4792 12.4312C16.8588 12.0516 17.072 11.5368 17.072 11C17.072 10.4632 16.8588 9.94839 16.4792 9.56882C16.0996 9.18925 15.5848 8.976 15.048 8.976ZM11 4.928C10.4632 4.928 9.94839 5.14125 9.56882 5.52082C9.18925 5.90039 8.976 6.41521 8.976 6.952C8.976 7.4888 9.18925 8.00361 9.56882 8.38319C9.94839 8.76276 10.4632 8.976 11 8.976C11.5368 8.976 12.0516 8.76276 12.4312 8.38319C12.8108 8.00361 13.024 7.4888 13.024 6.952C13.024 6.41521 12.8108 5.90039 12.4312 5.52082C12.0516 5.14125 11.5368 4.928 11 4.928Z" fill="white"/>
</svg>
