<svg width="25" height="24" viewBox="0 0 25 24" fill="none" xmlns="http://www.w3.org/2000/svg">
<path d="M10.6596 0.39563C9.2898 0.418951 8.0526 1.2446 7.49291 2.52129L14.1944 4.56706C14.489 2.79121 13.4334 1.06945 11.7347 0.546966C11.4304 0.453684 11.1112 0.402576 10.7921 0.39563H10.6596ZM7.23762 3.37671C6.93813 5.15752 7.99368 6.88424 9.69729 7.40524C11.4058 7.92623 13.2272 7.07279 13.944 5.4205L7.23762 3.37671ZM20.2724 5.57432C19.0303 5.57928 17.7096 6.18462 16.713 7.60867L10.5859 16.3862C8.94122 18.7381 9.65802 21.1992 11.2782 22.3603C12.9032 23.5263 15.4316 23.3923 17.0763 21.0404L23.1985 12.2679C24.8432 9.91097 24.1264 7.45486 22.5063 6.28882C21.8975 5.85218 21.166 5.59912 20.3952 5.57432H20.2724ZM20.1841 6.43272C20.2479 6.43272 20.3117 6.43271 20.3706 6.43768C20.9647 6.46249 21.5244 6.67585 21.9957 7.01821C23.2574 7.92127 23.8907 9.72242 22.4719 11.7518L19.3052 16.2919C17.5476 15.8156 15.2892 14.1931 14.2632 12.6698L17.4396 8.12471C18.2693 6.93882 19.2561 6.45256 20.1841 6.43272ZM4.46618 10.2136C3.99389 10.2186 3.52797 10.3178 3.09495 10.5114C1.46941 11.2308 0.623494 13.0667 1.11936 14.7934L7.5371 11.9602C6.89395 10.8636 5.72548 10.1988 4.46618 10.2136ZM7.88567 12.774L1.46892 15.6121C2.37472 17.1702 4.28208 17.7954 5.91695 17.0759C7.54692 16.3515 8.39136 14.5056 7.88567 12.774Z" fill="white"/>
</svg>
