<svg width="22" height="22" viewBox="0 0 22 22" fill="none" xmlns="http://www.w3.org/2000/svg">
<path d="M17.27 17.27C16.1101 17.27 15.18 18.2 15.18 19.36C15.18 19.9143 15.4002 20.4459 15.7922 20.8378C16.1841 21.2298 16.7157 21.45 17.27 21.45C17.8244 21.45 18.3559 21.2298 18.7479 20.8378C19.1399 20.4459 19.36 19.9143 19.36 19.36C19.36 18.8057 19.1399 18.2741 18.7479 17.8821C18.3559 17.4902 17.8244 17.27 17.27 17.27ZM0.550049 0.549988V2.63999H2.64005L6.40205 10.5715L4.98085 13.1318C4.8241 13.4244 4.73005 13.7692 4.73005 14.135C4.73005 14.6893 4.95024 15.2209 5.3422 15.6128C5.73415 16.0048 6.26575 16.225 6.82005 16.225H19.36V14.135H7.25895C7.18966 14.135 7.12321 14.1075 7.07422 14.0585C7.02522 14.0095 6.9977 13.943 6.9977 13.8737C6.9977 13.8215 7.00815 13.7797 7.02905 13.7483L7.96955 12.045H15.7548C16.5385 12.045 17.2282 11.6061 17.5835 10.9686L21.3246 4.20749C21.3978 4.04029 21.45 3.86264 21.45 3.68499C21.45 3.40784 21.34 3.14204 21.144 2.94606C20.948 2.75009 20.6822 2.63999 20.405 2.63999H4.9495L3.9672 0.549988M6.82005 17.27C5.6601 17.27 4.73005 18.2 4.73005 19.36C4.73005 19.9143 4.95024 20.4459 5.3422 20.8378C5.73415 21.2298 6.26575 21.45 6.82005 21.45C7.37435 21.45 7.90595 21.2298 8.2979 20.8378C8.68985 20.4459 8.91005 19.9143 8.91005 19.36C8.91005 18.8057 8.68985 18.2741 8.2979 17.8821C7.90595 17.4902 7.37435 17.27 6.82005 17.27Z" fill="white"/>
</svg>
